<svg width="24" height="24" viewBox="0 0 24 24" fill="none" xmlns="http://www.w3.org/2000/svg">
<path fill-rule="evenodd" clip-rule="evenodd" d="M4.54 1.5C2.85991 1.5 1.5 2.87782 1.5 4.561V7.97C1.5 9.66358 2.86131 11.03 4.54 11.03H7.92C9.60997 11.03 10.96 9.6623 10.96 7.97V4.561C10.96 2.87911 9.61136 1.5 7.92 1.5H4.54ZM2.5 4.561C2.5 3.42218 3.42009 2.5 4.54 2.5H7.92C9.04864 2.5 9.96 3.42089 9.96 4.561V7.97C9.96 9.1177 9.05003 10.03 7.92 10.03H4.54C3.41869 10.03 2.5 9.11642 2.5 7.97V4.561ZM4.54 13.4697H7.92C9.33 13.4697 10.46 14.6107 10.46 16.0307V19.4397C10.46 20.8497 9.33 21.9997 7.92 21.9997H4.54C3.14 21.9997 2 20.8497 2 19.4397V16.0307C2 14.6107 3.14 13.4697 4.54 13.4697ZM19.4601 2H16.0801C14.6701 2 13.5401 3.15 13.5401 4.561V7.97C13.5401 9.39 14.6701 10.53 16.0801 10.53H19.4601C20.8601 10.53 22.0001 9.39 22.0001 7.97V4.561C22.0001 3.15 20.8601 2 19.4601 2ZM16.0801 13.4697H19.4601C20.8601 13.4697 22.0001 14.6107 22.0001 16.0307V19.4397C22.0001 20.8497 20.8601 21.9997 19.4601 21.9997H16.0801C14.6701 21.9997 13.5401 20.8497 13.5401 19.4397V16.0307C13.5401 14.6107 14.6701 13.4697 16.0801 13.4697Z" fill="#F2F2F2"/>
</svg>
