<svg width="32" height="32" viewBox="0 0 32 32" fill="none" xmlns="http://www.w3.org/2000/svg">
<circle opacity="0.05" cx="16" cy="16" r="16" fill="#DE350B"/>
<path fill-rule="evenodd" clip-rule="evenodd" d="M12.1508 11.2073C11.8904 10.947 11.4683 10.947 11.208 11.2073C10.9476 11.4677 10.9476 11.8898 11.208 12.1502L15.0578 16L11.208 19.8498C10.9476 20.1101 10.9476 20.5322 11.208 20.7926C11.4683 21.0529 11.8905 21.0529 12.1508 20.7926L16.0006 16.9428L19.8504 20.7926C20.1107 21.0529 20.5329 21.0529 20.7932 20.7926C21.0535 20.5322 21.0535 20.1101 20.7932 19.8498L16.9434 16L20.7932 12.1502C21.0536 11.8898 21.0536 11.4677 20.7932 11.2073C20.5329 10.947 20.1108 10.947 19.8504 11.2073L16.0006 15.0572L12.1508 11.2073Z" fill="#DE350B"/>
</svg>
