<svg width="124" height="17" viewBox="0 0 124 17" fill="none" xmlns="http://www.w3.org/2000/svg">
<path d="M7.26172 0.613281C8.98828 0.613281 10.3398 1.07813 11.3164 2.00781C12.293 2.9375 12.7812 4.21094 12.7812 5.82812C12.7812 7.39844 12.2852 8.66016 11.293 9.61328C10.3008 10.5586 8.92969 11.0312 7.17969 11.0312H4.49609V16H0.605469V0.613281H7.26172ZM6.46484 7.71484C7.23047 7.71484 7.78906 7.51953 8.14062 7.12891C8.49219 6.73828 8.66797 6.28125 8.66797 5.75781C8.66797 5.32812 8.49219 4.92578 8.14062 4.55078C7.78906 4.16797 7.23047 3.97656 6.46484 3.97656H4.49609V7.71484H6.46484ZM21.9844 0.613281H25.6758L31.3711 16H27.2344L26.1797 13H21.3867L20.2969 16H16.2422L21.9844 0.613281ZM25.0781 9.76562L24.6914 8.67578L24.0938 6.78906L23.8359 5.96875C23.7891 6.17969 23.6719 6.55469 23.4844 7.09375C23.2969 7.625 23.1094 8.15234 22.9219 8.67578L22.5117 9.76562H25.0781ZM38.3008 0.613281L39.6953 3.03906C40.1406 3.82031 40.5195 4.51562 40.832 5.125C41.1445 5.73438 41.3438 6.12109 41.4297 6.28516C41.5078 6.12891 41.7031 5.74219 42.0156 5.125C42.3281 4.5 42.707 3.80469 43.1523 3.03906L44.5703 0.613281H48.9414L43.3164 10.0938V16H39.4141V10.0938L33.7891 0.613281H38.3008ZM64.9531 12.4961V16H54.7461V0.613281H58.6836V12.4961H64.9531ZM86.5898 8.30078C86.5898 9.87891 86.2344 11.2734 85.5234 12.4844C84.8125 13.6953 83.8203 14.6367 82.5469 15.3086C81.2734 15.9805 79.8203 16.3164 78.1875 16.3164C76.5703 16.3164 75.1289 15.9844 73.8633 15.3203C72.6055 14.6562 71.6172 13.7188 70.8984 12.5078C70.1875 11.2969 69.832 9.90234 69.832 8.32422C69.832 6.75391 70.1836 5.35938 70.8867 4.14062C71.5977 2.91406 72.5859 1.96484 73.8516 1.29297C75.125 0.621094 76.5781 0.285156 78.2109 0.285156C79.8281 0.285156 81.2734 0.621094 82.5469 1.29297C83.8203 1.96484 84.8125 2.90625 85.5234 4.11719C86.2344 5.32031 86.5898 6.71484 86.5898 8.30078ZM82.4648 8.30078C82.4648 6.97266 82.0742 5.90625 81.293 5.10156C80.5195 4.28906 79.5 3.88281 78.2344 3.88281C76.9531 3.88281 75.918 4.29297 75.1289 5.11328C74.3398 5.92578 73.9453 6.99609 73.9453 8.32422C73.9453 9.65234 74.3359 10.7148 75.1172 11.5117C75.8984 12.3086 76.9297 12.707 78.2109 12.707C79.4766 12.707 80.5 12.3047 81.2812 11.5C82.0703 10.6953 82.4648 9.62891 82.4648 8.30078ZM99.4844 0.613281C100.961 0.613281 102.289 0.945312 103.469 1.60938C104.656 2.27344 105.582 3.19922 106.246 4.38672C106.91 5.56641 107.242 6.89453 107.242 8.37109C107.242 9.83984 106.914 11.1523 106.258 12.3086C105.602 13.457 104.684 14.3594 103.504 15.0156C102.332 15.6719 100.992 16 99.4844 16H92.9102V0.613281H99.4844ZM99.1094 12.4961C100.352 12.4961 101.332 12.1172 102.051 11.3594C102.777 10.5938 103.141 9.59766 103.141 8.37109C103.141 7.08984 102.773 6.0625 102.039 5.28906C101.312 4.50781 100.336 4.11719 99.1094 4.11719H96.8008V12.4961H99.1094ZM117.465 4.11719V6.51953H123.172V9.90625H117.465V12.4961H123.922V16H113.574V0.613281H123.922V4.11719H117.465Z" fill="white"/>
</svg>
